# xmcd
#
# Track frame offsets:
#	150
#	15417
#	31374
#	49392
#	64636
#	81207
#	94433
#	113755
#	127632
#	144489
#	160634
#	173260
#	185874
#	202194
#	217988
#	234728
#	251963
#	267251
#	280933
#	298723
#
# Disc length: 4222 seconds
#
# Revision: 0
# Processed by: cddbd v1.5.2PL0 Copyright (c) Steve Scherf et al.
# Submitted via: EasyCDDAExtractor 11.5.0.1
#
DISCID=24107c14
DTITLE=Various Artist - NCT 153
DYEAR=2012
DGENRE=Country
TTITLE0=Tim McGraw - Better Than I Used To Be
TTITLE1=Blake Shelton - Drink On It
TTITLE2=Taylor Swift - Ours
TTITLE3=Josh Turner - Time Is Love
TTITLE4=Maggie Sajak - First Kiss
TTITLE5=Ronnie Dunn - Let The Cowboy Rock
TTITLE6=Jason Kirkness - I Play The Music
TTITLE7=Steve Holy - Until The Rain Stops
TTITLE8=Miranda Lambert - Over You (Single Edit)
TTITLE9=Brantley Gilbert - You Don't Know Her Like I Do
TTITLE10=Tim Duggar - Way Past My Beer Time
TTITLE11=Jerry Serada - My Heart's Got A Memory
TTITLE12=Eli Young Band - Even If It Breaks Your Heart (Single Mix)
TTITLE13=Badhorse - It's All Good
TTITLE14=Jana Kramer - Why Ya Wanna
TTITLE15=Canaan Smith - We Got Us
TTITLE16=Brad Wolf - Too Many Monday's (Not Enough Saturday Nights)
TTITLE17=Clay Walker - Like We Never Said Goodbye
TTITLE18=Colte Bradley - Moments
TTITLE19=Julie Ingram - Thank God (For Mom and Dad)
EXTD=
EXTT0=
EXTT1=
EXTT2=
EXTT3=
EXTT4=
EXTT5=
EXTT6=
EXTT7=
EXTT8=
EXTT9=
EXTT10=
EXTT11=
EXTT12=
EXTT13=
EXTT14=
EXTT15=
EXTT16=
EXTT17=
EXTT18=
EXTT19=
PLAYORDER=
